<svg width="21" height="21" viewBox="0 0 21 21" fill="none" xmlns="http://www.w3.org/2000/svg">
<path d="M15.0447 1.79102V3.45768M5.04468 1.79102V3.45768" stroke="#808080" stroke-linecap="round" stroke-linejoin="round"/>
<path d="M10.0409 10.959H10.0484M10.0409 14.2923H10.0484M13.3705 10.959H13.378M6.7113 10.959H6.71878M6.7113 14.2923H6.71878" stroke="#808080" stroke-linecap="round" stroke-linejoin="round"/>
<path d="M2.9613 6.79102H17.128" stroke="#808080" stroke-linecap="round" stroke-linejoin="round"/>
<path d="M2.12805 10.3277C2.12805 6.69662 2.12805 4.88107 3.17149 3.75303C4.21492 2.625 5.89429 2.625 9.25305 2.625H10.8364C14.1951 2.625 15.8746 2.625 16.918 3.75303C17.9614 4.88107 17.9614 6.69662 17.9614 10.3277V10.7557C17.9614 14.3867 17.9614 16.2022 16.918 17.3303C15.8746 18.4583 14.1951 18.4583 10.8364 18.4583H9.25305C5.89429 18.4583 4.21492 18.4583 3.17149 17.3303C2.12805 16.2022 2.12805 14.3867 2.12805 10.7557V10.3277Z" stroke="#808080" stroke-linecap="round" stroke-linejoin="round"/>
<path d="M2.54468 6.79102H17.5447" stroke="#808080" stroke-linecap="round" stroke-linejoin="round"/>
</svg>
