<svg width="17" height="16" viewBox="0 0 17 16" fill="none" xmlns="http://www.w3.org/2000/svg">
<path fill-rule="evenodd" clip-rule="evenodd" d="M3.40499 2C3.07665 2 2.76176 2.13043 2.52959 2.3626C2.29742 2.59477 2.16699 2.90966 2.16699 3.238V6.09533C2.16699 6.77933 2.72099 7.33333 3.40499 7.33333H6.26233C6.59066 7.33333 6.90555 7.2029 7.13772 6.97073C7.36989 6.73856 7.50033 6.42367 7.50033 6.09533V3.238C7.50033 2.90966 7.36989 2.59477 7.13772 2.3626C6.90555 2.13043 6.59066 2 6.26233 2H3.40499ZM10.0717 2C9.74332 2 9.42843 2.13043 9.19626 2.3626C8.96409 2.59477 8.83366 2.90966 8.83366 3.238V6.09533C8.83366 6.77933 9.38766 7.33333 10.0717 7.33333H12.929C13.2573 7.33333 13.5722 7.2029 13.8044 6.97073C14.0366 6.73856 14.167 6.42367 14.167 6.09533V3.238C14.167 2.90966 14.0366 2.59477 13.8044 2.3626C13.5722 2.13043 13.2573 2 12.929 2H10.0717ZM3.40499 8.66667C3.07665 8.66667 2.76176 8.7971 2.52959 9.02927C2.29742 9.26144 2.16699 9.57633 2.16699 9.90467V12.762C2.16699 13.446 2.72099 14 3.40499 14H6.26233C6.59066 14 6.90555 13.8696 7.13772 13.6374C7.36989 13.4052 7.50033 13.0903 7.50033 12.762V9.90467C7.50033 9.57633 7.36989 9.26144 7.13772 9.02927C6.90555 8.7971 6.59066 8.66667 6.26233 8.66667H3.40499ZM10.0717 8.66667C9.74332 8.66667 9.42843 8.7971 9.19626 9.02927C8.96409 9.26144 8.83366 9.57633 8.83366 9.90467V12.762C8.83366 13.446 9.38766 14 10.0717 14H12.929C13.2573 14 13.5722 13.8696 13.8044 13.6374C14.0366 13.4052 14.167 13.0903 14.167 12.762V9.90467C14.167 9.57633 14.0366 9.26144 13.8044 9.02927C13.5722 8.7971 13.2573 8.66667 12.929 8.66667H10.0717Z" fill="#6B047C"/>
</svg>
