<svg width="41" height="40" viewBox="0 0 41 40" fill="none" xmlns="http://www.w3.org/2000/svg">
<g clip-path="url(#clip0_2_9796)">
<path d="M24.7773 0L35.5 10.7227V15H33V12.5H23V2.5H5.5V37.5H20.5V40H3V0H24.7773ZM25.5 10H31.2227L25.5 4.27734V10ZM38 37.5H40.5V40H38V37.5ZM33 37.5H35.5V40H33V37.5ZM28 37.5H30.5V40H28V37.5ZM33 17.5H35.5V20H33V17.5ZM28 17.5H30.5V20H28V17.5ZM23 37.5H25.5V40H23V37.5ZM38 32.5H40.5V35H38V32.5ZM23 32.5H25.5V35H23V32.5ZM38 27.5H40.5V30H38V27.5ZM23 27.5H25.5V30H23V27.5ZM38 22.5H40.5V25H38V22.5ZM23 22.5H25.5V25H23V22.5ZM40.5 17.5V20H38V17.5H40.5ZM23 17.5H25.5V20H23V17.5Z" fill="#6B047C"/>
</g>
<defs>
<clipPath id="clip0_2_9796">
<rect width="40" height="40" fill="white" transform="translate(0.5)"/>
</clipPath>
</defs>
</svg>
