<svg width="53" height="53" viewBox="0 0 53 53" fill="none" xmlns="http://www.w3.org/2000/svg">
<rect x="0.551025" y="1.125" width="51" height="51" rx="7.5" fill="#FFF7F5"/>
<rect x="0.551025" y="1.125" width="51" height="51" rx="7.5" stroke="#FDC721"/>
<path d="M27.486 16.2C27.0379 15.986 26.5476 15.8749 26.051 15.8749C25.5544 15.8749 25.0641 15.986 24.616 16.2C24.222 16.389 23.861 16.697 23.356 17.128L23.277 17.194C22.841 17.587 22.2832 17.8183 21.697 17.849L21.595 17.857C20.933 17.91 20.46 17.947 20.048 18.093C19.5798 18.2584 19.1544 18.5265 18.8032 18.8776C18.452 19.2286 18.1837 19.6538 18.018 20.122C17.873 20.534 17.836 21.007 17.783 21.669L17.775 21.771C17.7443 22.3572 17.513 22.915 17.12 23.351L17.054 23.429C16.623 23.935 16.314 24.296 16.126 24.69C15.912 25.1381 15.801 25.6284 15.801 26.125C15.801 26.6216 15.912 27.1119 16.126 27.56C16.315 27.954 16.623 28.315 17.054 28.82L17.12 28.899C17.53 29.379 17.724 29.838 17.775 30.479L17.783 30.581C17.836 31.243 17.873 31.716 18.019 32.128C18.1845 32.5962 18.4525 33.0216 18.8036 33.3728C19.1547 33.7241 19.5799 33.9923 20.048 34.158C20.46 34.303 20.933 34.34 21.595 34.393L21.697 34.401C22.326 34.451 22.787 34.639 23.277 35.056L23.355 35.122C23.861 35.553 24.222 35.862 24.616 36.05C25.0641 36.264 25.5544 36.3751 26.051 36.3751C26.5476 36.3751 27.0379 36.264 27.486 36.05C27.88 35.861 28.241 35.553 28.746 35.122L28.825 35.056C29.305 34.646 29.764 34.452 30.405 34.401L30.507 34.393C31.169 34.34 31.642 34.303 32.054 34.157C32.5223 33.9916 32.9476 33.7235 33.2988 33.3724C33.6501 33.0214 33.9184 32.5962 34.084 32.128C34.229 31.716 34.266 31.243 34.319 30.581L34.327 30.479C34.377 29.85 34.565 29.389 34.982 28.899L35.048 28.82C35.479 28.315 35.788 27.954 35.976 27.56C36.19 27.1119 36.3011 26.6216 36.3011 26.125C36.3011 25.6284 36.19 25.1381 35.976 24.69C35.787 24.296 35.479 23.935 35.048 23.43L34.982 23.351C34.589 22.915 34.3578 22.3572 34.327 21.771L34.319 21.669C34.266 21.007 34.229 20.534 34.083 20.122C33.9176 19.6537 33.6495 19.2284 33.2985 18.8772C32.9474 18.5259 32.5222 18.2577 32.054 18.092C31.642 17.947 31.169 17.91 30.507 17.857L30.405 17.849C29.8188 17.8183 29.261 17.587 28.825 17.194L28.746 17.128C28.241 16.697 27.88 16.388 27.486 16.2ZM26.051 21.002C26.2499 21.002 26.4407 21.081 26.5814 21.2217C26.722 21.3623 26.801 21.5531 26.801 21.752V27.252C26.801 27.4509 26.722 27.6417 26.5814 27.7823C26.4407 27.923 26.2499 28.002 26.051 28.002C25.8521 28.002 25.6613 27.923 25.5207 27.7823C25.38 27.6417 25.301 27.4509 25.301 27.252V21.752C25.301 21.5531 25.38 21.3623 25.5207 21.2217C25.6613 21.081 25.8521 21.002 26.051 21.002ZM26.801 29.998V30.498C26.801 30.6969 26.722 30.8877 26.5814 31.0283C26.4407 31.169 26.2499 31.248 26.051 31.248C25.8521 31.248 25.6613 31.169 25.5207 31.0283C25.38 30.8877 25.301 30.6969 25.301 30.498V29.998C25.301 29.7991 25.38 29.6083 25.5207 29.4677C25.6613 29.327 25.8521 29.248 26.051 29.248C26.2499 29.248 26.4407 29.327 26.5814 29.4677C26.722 29.6083 26.801 29.7991 26.801 29.998Z" fill="#FDC721"/>
</svg>
