<svg width="53" height="53" viewBox="0 0 53 53" fill="none" xmlns="http://www.w3.org/2000/svg">
<rect x="0.551025" y="1.12598" width="51" height="51" rx="7.5" fill="#F0F4FF"/>
<rect x="0.551025" y="1.12598" width="51" height="51" rx="7.5" stroke="#2163FD"/>
<path d="M31.326 33.876L34.801 30.426L33.751 29.376L31.326 31.751L30.351 30.776L29.301 31.851L31.326 33.876ZM20.051 22.626H32.051V20.626H20.051V22.626ZM32.051 36.626C30.6677 36.626 29.4887 36.1383 28.514 35.163C27.5394 34.1876 27.0517 33.0086 27.051 31.626C27.0504 30.2433 27.538 29.0643 28.514 28.089C29.49 27.1136 30.669 26.626 32.051 26.626C33.433 26.626 34.6124 27.1136 35.589 28.089C36.5657 29.0643 37.053 30.2433 37.051 31.626C37.049 33.0086 36.5614 34.188 35.588 35.164C34.6147 36.14 33.4357 36.6273 32.051 36.626ZM17.051 35.626V18.626C17.051 18.076 17.247 17.6053 17.639 17.214C18.031 16.8226 18.5017 16.6266 19.051 16.626H33.051C33.601 16.626 34.072 16.822 34.464 17.214C34.856 17.606 35.0517 18.0766 35.051 18.626V25.301C34.5844 25.0676 34.0967 24.8966 33.588 24.788C33.0794 24.6793 32.567 24.6253 32.051 24.626H20.051V26.626H27.151C26.8677 26.9093 26.6054 27.2176 26.364 27.551C26.1227 27.8843 25.91 28.2426 25.726 28.626H20.051V30.626H25.126C25.0927 30.7926 25.072 30.9553 25.064 31.114C25.056 31.2726 25.0517 31.4433 25.051 31.626C25.051 32.326 25.147 32.997 25.339 33.639C25.531 34.281 25.8184 34.8933 26.201 35.476L26.051 35.626L24.551 34.126L23.051 35.626L21.551 34.126L20.051 35.626L18.551 34.126L17.051 35.626Z" fill="#2163FD"/>
</svg>
