<svg width="53" height="53" viewBox="0 0 53 53" fill="none" xmlns="http://www.w3.org/2000/svg">
<rect x="0.551025" y="1.125" width="51" height="51" rx="7.5" fill="#FFF7F5"/>
<rect x="0.551025" y="1.125" width="51" height="51" rx="7.5" stroke="#D43705"/>
<path d="M16.051 32.625C16.051 34.325 17.351 35.625 19.051 35.625H33.051C34.751 35.625 36.051 34.325 36.051 32.625V24.625H16.051V32.625ZM33.051 17.625H31.051V16.625C31.051 16.025 30.651 15.625 30.051 15.625C29.451 15.625 29.051 16.025 29.051 16.625V17.625H23.051V16.625C23.051 16.025 22.651 15.625 22.051 15.625C21.451 15.625 21.051 16.025 21.051 16.625V17.625H19.051C17.351 17.625 16.051 18.925 16.051 20.625V22.625H36.051V20.625C36.051 18.925 34.751 17.625 33.051 17.625Z" fill="#D43705"/>
<rect x="29.301" y="29.875" width="7.5" height="7.5" rx="3.75" fill="#FFF7F5"/>
<rect x="29.301" y="29.875" width="7.5" height="7.5" rx="3.75" stroke="#FFF7F5" stroke-width="0.5"/>
<g clip-path="url(#clip0_335_381)">
<path d="M30.801 30.75H35.301M30.801 36.5H35.301M31.426 36.5V35L32.14 34.5715C32.3035 34.4734 32.4388 34.3347 32.5327 34.1689C32.6266 34.003 32.676 33.8156 32.676 33.625C32.676 33.4344 32.6266 33.247 32.5327 33.0811C32.4388 32.9153 32.3035 32.7766 32.14 32.6785L31.426 32.25V30.75M34.676 30.75V32.25L33.962 32.6785C33.7986 32.7766 33.6634 32.9153 33.5695 33.0812C33.4757 33.2471 33.4263 33.4344 33.4263 33.625C33.4263 33.8156 33.4757 34.0029 33.5695 34.1688C33.6634 34.3347 33.7986 34.4734 33.962 34.5715L34.676 35V36.5" stroke="#D43705"/>
</g>
<defs>
<clipPath id="clip0_335_381">
<rect width="6" height="6" fill="white" transform="translate(30.051 30.625)"/>
</clipPath>
</defs>
</svg>
