<svg width="53" height="53" viewBox="0 0 53 53" fill="none" xmlns="http://www.w3.org/2000/svg">
<rect x="0.551025" y="1.12598" width="51" height="51" rx="7.5" fill="#F9F5FA"/>
<rect x="0.551025" y="1.12598" width="51" height="51" rx="7.5" stroke="#6B047C"/>
<path d="M36.051 27.604V32.126C36.051 32.9216 35.735 33.6847 35.1723 34.2473C34.6097 34.8099 33.8467 35.126 33.051 35.126H19.051C18.2554 35.126 17.4923 34.8099 16.9297 34.2473C16.3671 33.6847 16.051 32.9216 16.051 32.126V27.604L16.604 27.881C19.535 29.3572 22.7711 30.126 26.0528 30.1256C29.3345 30.1253 32.5704 29.3558 35.501 27.879L36.051 27.604ZM28.051 16.126C28.8467 16.126 29.6097 16.442 30.1723 17.0047C30.735 17.5673 31.051 18.3303 31.051 19.126V20.126H33.051C33.8467 20.126 34.6097 20.442 35.1723 21.0047C35.735 21.5673 36.051 22.3303 36.051 23.126V25.368L34.604 26.092C32.0151 27.3971 29.1617 28.0924 26.2626 28.1246C23.3635 28.1569 20.4954 27.5252 17.878 26.278L17.231 25.958L16.051 25.368V23.126C16.051 22.3303 16.3671 21.5673 16.9297 21.0047C17.4923 20.442 18.2554 20.126 19.051 20.126H21.051V19.126C21.051 18.3303 21.3671 17.5673 21.9297 17.0047C22.4923 16.442 23.2554 16.126 24.051 16.126H28.051ZM26.051 24.126C25.7858 24.126 25.5315 24.2313 25.3439 24.4189C25.1564 24.6064 25.051 24.8608 25.051 25.126C25.0504 25.2573 25.0756 25.3875 25.1252 25.509C25.1749 25.6306 25.248 25.7412 25.3404 25.8345C25.4328 25.9279 25.5426 26.0021 25.6637 26.0529C25.7848 26.1038 25.9147 26.1303 26.046 26.131C26.1773 26.1316 26.3075 26.1064 26.4291 26.0568C26.5507 26.0071 26.6613 25.934 26.7546 25.8416C26.8479 25.7492 26.9221 25.6394 26.973 25.5183C27.0239 25.3972 27.0504 25.2673 27.051 25.136C27.051 24.574 26.603 24.126 26.051 24.126ZM28.051 18.126H24.051C23.7858 18.126 23.5315 18.2313 23.3439 18.4189C23.1564 18.6064 23.051 18.8608 23.051 19.126V20.126H29.051V19.126C29.051 18.8608 28.9457 18.6064 28.7581 18.4189C28.5706 18.2313 28.3162 18.126 28.051 18.126Z" fill="#6B047C"/>
</svg>
