<svg width="53" height="53" viewBox="0 0 53 53" fill="none" xmlns="http://www.w3.org/2000/svg">
<rect x="0.551025" y="1.125" width="51" height="51" rx="7.5" fill="#F9F5FA"/>
<rect x="0.551025" y="1.125" width="51" height="51" rx="7.5" stroke="#6B047C"/>
<path d="M27.486 15.2C27.0379 14.986 26.5476 14.8749 26.051 14.8749C25.5544 14.8749 25.0641 14.986 24.616 15.2C24.222 15.389 23.861 15.697 23.356 16.128L23.277 16.194C22.841 16.587 22.2832 16.8183 21.697 16.849L21.595 16.857C20.933 16.91 20.46 16.947 20.048 17.093C19.5798 17.2584 19.1544 17.5265 18.8032 17.8776C18.452 18.2286 18.1837 18.6538 18.018 19.122C17.873 19.534 17.836 20.007 17.783 20.669L17.775 20.771C17.7443 21.3572 17.513 21.915 17.12 22.351L17.054 22.429C16.623 22.935 16.314 23.296 16.126 23.69C15.912 24.1381 15.801 24.6284 15.801 25.125C15.801 25.6216 15.912 26.1119 16.126 26.56C16.315 26.954 16.623 27.315 17.054 27.82L17.12 27.899C17.53 28.379 17.724 28.838 17.775 29.479L17.783 29.581C17.836 30.243 17.873 30.716 18.019 31.128C18.1845 31.5962 18.4525 32.0216 18.8036 32.3728C19.1547 32.7241 19.5799 32.9923 20.048 33.158C20.46 33.303 20.933 33.34 21.595 33.393L21.697 33.401C22.326 33.451 22.787 33.639 23.277 34.056L23.355 34.122C23.861 34.553 24.222 34.862 24.616 35.05C25.0641 35.264 25.5544 35.3751 26.051 35.3751C26.5476 35.3751 27.0379 35.264 27.486 35.05C27.88 34.861 28.241 34.553 28.746 34.122L28.825 34.056C29.305 33.646 29.764 33.452 30.405 33.401L30.507 33.393C31.169 33.34 31.642 33.303 32.054 33.157C32.5223 32.9916 32.9476 32.7235 33.2988 32.3724C33.6501 32.0214 33.9184 31.5962 34.084 31.128C34.229 30.716 34.266 30.243 34.319 29.581L34.327 29.479C34.377 28.85 34.565 28.389 34.982 27.899L35.048 27.82C35.479 27.315 35.788 26.954 35.976 26.56C36.19 26.1119 36.3011 25.6216 36.3011 25.125C36.3011 24.6284 36.19 24.1381 35.976 23.69C35.787 23.296 35.479 22.935 35.048 22.43L34.982 22.351C34.589 21.915 34.3578 21.3572 34.327 20.771L34.319 20.669C34.266 20.007 34.229 19.534 34.083 19.122C33.9176 18.6537 33.6495 18.2284 33.2985 17.8772C32.9474 17.5259 32.5222 17.2577 32.054 17.092C31.642 16.947 31.169 16.91 30.507 16.857L30.405 16.849C29.8188 16.8183 29.261 16.587 28.825 16.194L28.746 16.128C28.241 15.697 27.88 15.388 27.486 15.2ZM26.051 20.002C26.2499 20.002 26.4407 20.081 26.5814 20.2217C26.722 20.3623 26.801 20.5531 26.801 20.752V26.252C26.801 26.4509 26.722 26.6417 26.5814 26.7823C26.4407 26.923 26.2499 27.002 26.051 27.002C25.8521 27.002 25.6613 26.923 25.5207 26.7823C25.38 26.6417 25.301 26.4509 25.301 26.252V20.752C25.301 20.5531 25.38 20.3623 25.5207 20.2217C25.6613 20.081 25.8521 20.002 26.051 20.002ZM26.801 28.998V29.498C26.801 29.6969 26.722 29.8877 26.5814 30.0283C26.4407 30.169 26.2499 30.248 26.051 30.248C25.8521 30.248 25.6613 30.169 25.5207 30.0283C25.38 29.8877 25.301 29.6969 25.301 29.498V28.998C25.301 28.7991 25.38 28.6083 25.5207 28.4677C25.6613 28.327 25.8521 28.248 26.051 28.248C26.2499 28.248 26.4407 28.327 26.5814 28.4677C26.722 28.6083 26.801 28.7991 26.801 28.998Z" fill="#6B047C"/>
</svg>
