<svg width="53" height="53" viewBox="0 0 53 53" fill="none" xmlns="http://www.w3.org/2000/svg">
<rect x="0.551025" y="1.125" width="51" height="51" rx="7.5" fill="#FFF7F5"/>
<rect x="0.551025" y="1.125" width="51" height="51" rx="7.5" stroke="#FDC721"/>
<path d="M16.051 33.625C16.051 35.325 17.351 36.625 19.051 36.625H33.051C34.751 36.625 36.051 35.325 36.051 33.625V25.625H16.051V33.625ZM33.051 18.625H31.051V17.625C31.051 17.025 30.651 16.625 30.051 16.625C29.451 16.625 29.051 17.025 29.051 17.625V18.625H23.051V17.625C23.051 17.025 22.651 16.625 22.051 16.625C21.451 16.625 21.051 17.025 21.051 17.625V18.625H19.051C17.351 18.625 16.051 19.925 16.051 21.625V23.625H36.051V21.625C36.051 19.925 34.751 18.625 33.051 18.625Z" fill="#FDC721"/>
</svg>
