<svg width="53" height="53" viewBox="0 0 53 53" fill="none" xmlns="http://www.w3.org/2000/svg">
<rect x="0.551025" y="1.125" width="51" height="51" rx="7.5" fill="#F5FFFB"/>
<rect x="0.551025" y="1.125" width="51" height="51" rx="7.5" stroke="#1C7C04"/>
<path d="M16.051 32.625C16.051 34.325 17.351 35.625 19.051 35.625H33.051C34.751 35.625 36.051 34.325 36.051 32.625V24.625H16.051V32.625ZM33.051 17.625H31.051V16.625C31.051 16.025 30.651 15.625 30.051 15.625C29.451 15.625 29.051 16.025 29.051 16.625V17.625H23.051V16.625C23.051 16.025 22.651 15.625 22.051 15.625C21.451 15.625 21.051 16.025 21.051 16.625V17.625H19.051C17.351 17.625 16.051 18.925 16.051 20.625V22.625H36.051V20.625C36.051 18.925 34.751 17.625 33.051 17.625Z" fill="#1C7C04"/>
</svg>
