<svg width="53" height="53" viewBox="0 0 53 53" fill="none" xmlns="http://www.w3.org/2000/svg">
<rect x="0.551025" y="1.125" width="51" height="51" rx="7.5" fill="#FFF7F5"/>
<rect x="0.551025" y="1.125" width="51" height="51" rx="7.5" stroke="#D43705"/>
<rect x="29.301" y="29.875" width="7.5" height="7.5" rx="3.75" fill="#FFF7F5"/>
<rect x="29.301" y="29.875" width="7.5" height="7.5" rx="3.75" stroke="#FFF7F5" stroke-width="0.5"/>
<g clip-path="url(#clip0_356_4478)">
<path d="M30.801 30.75H35.301M30.801 36.5H35.301M31.426 36.5V35L32.14 34.5715C32.3035 34.4734 32.4388 34.3347 32.5327 34.1689C32.6266 34.003 32.676 33.8156 32.676 33.625C32.676 33.4344 32.6266 33.247 32.5327 33.0811C32.4388 32.9153 32.3035 32.7766 32.14 32.6785L31.426 32.25V30.75M34.676 30.75V32.25L33.962 32.6785C33.7986 32.7766 33.6634 32.9153 33.5695 33.0812C33.4757 33.2471 33.4263 33.4344 33.4263 33.625C33.4263 33.8156 33.4757 34.0029 33.5695 34.1688C33.6634 34.3347 33.7986 34.4734 33.962 34.5715L34.676 35V36.5" stroke="#D43705"/>
</g>
<path d="M27.4861 15.2C27.038 14.986 26.5477 14.8749 26.0511 14.8749C25.5545 14.8749 25.0642 14.986 24.6161 15.2C24.2221 15.389 23.8611 15.697 23.3561 16.128L23.2771 16.194C22.8411 16.587 22.2833 16.8183 21.6971 16.849L21.5951 16.857C20.9331 16.91 20.4601 16.947 20.0481 17.093C19.5798 17.2584 19.1545 17.5265 18.8033 17.8776C18.452 18.2286 18.1837 18.6538 18.0181 19.122C17.8731 19.534 17.8361 20.007 17.7831 20.669L17.7751 20.771C17.7443 21.3572 17.5131 21.915 17.1201 22.351L17.0541 22.429C16.6231 22.935 16.3141 23.296 16.1261 23.69C15.9121 24.1381 15.801 24.6284 15.801 25.125C15.801 25.6216 15.9121 26.1119 16.1261 26.56C16.3151 26.954 16.6231 27.315 17.0541 27.82L17.1201 27.899C17.5301 28.379 17.7241 28.838 17.7751 29.479L17.7831 29.581C17.8361 30.243 17.8731 30.716 18.0191 31.128C18.1845 31.5962 18.4526 32.0216 18.8037 32.3728C19.1547 32.7241 19.5799 32.9923 20.0481 33.158C20.4601 33.303 20.9331 33.34 21.5951 33.393L21.6971 33.401C22.3261 33.451 22.7871 33.639 23.2771 34.056L23.3551 34.122C23.8611 34.553 24.2221 34.862 24.6161 35.05C25.0642 35.264 25.5545 35.3751 26.0511 35.3751C26.5477 35.3751 27.038 35.264 27.4861 35.05C27.8801 34.861 28.2411 34.553 28.7461 34.122L28.8251 34.056C29.3051 33.646 29.7641 33.452 30.4051 33.401L30.5071 33.393C31.1691 33.34 31.6421 33.303 32.0541 33.157C32.5223 32.9916 32.9477 32.7235 33.2989 32.3724C33.6502 32.0214 33.9184 31.5962 34.0841 31.128C34.2291 30.716 34.2661 30.243 34.3191 29.581L34.3271 29.479C34.3771 28.85 34.5651 28.389 34.9821 27.899L35.0481 27.82C35.4791 27.315 35.7881 26.954 35.9761 26.56C36.1901 26.1119 36.3011 25.6216 36.3011 25.125C36.3011 24.6284 36.1901 24.1381 35.9761 23.69C35.7871 23.296 35.4791 22.935 35.0481 22.43L34.9821 22.351C34.5891 21.915 34.3578 21.3572 34.3271 20.771L34.3191 20.669C34.2661 20.007 34.2291 19.534 34.0831 19.122C33.9177 18.6537 33.6496 18.2284 33.2985 17.8772C32.9474 17.5259 32.5223 17.2577 32.0541 17.092C31.6421 16.947 31.1691 16.91 30.5071 16.857L30.4051 16.849C29.8189 16.8183 29.2611 16.587 28.8251 16.194L28.7461 16.128C28.2411 15.697 27.8801 15.388 27.4861 15.2ZM26.0511 20.002C26.25 20.002 26.4408 20.081 26.5814 20.2217C26.7221 20.3623 26.8011 20.5531 26.8011 20.752V26.252C26.8011 26.4509 26.7221 26.6417 26.5814 26.7823C26.4408 26.923 26.25 27.002 26.0511 27.002C25.8522 27.002 25.6614 26.923 25.5208 26.7823C25.3801 26.6417 25.3011 26.4509 25.3011 26.252V20.752C25.3011 20.5531 25.3801 20.3623 25.5208 20.2217C25.6614 20.081 25.8522 20.002 26.0511 20.002ZM26.8011 28.998V29.498C26.8011 29.6969 26.7221 29.8877 26.5814 30.0283C26.4408 30.169 26.25 30.248 26.0511 30.248C25.8522 30.248 25.6614 30.169 25.5208 30.0283C25.3801 29.8877 25.3011 29.6969 25.3011 29.498V28.998C25.3011 28.7991 25.3801 28.6083 25.5208 28.4677C25.6614 28.327 25.8522 28.248 26.0511 28.248C26.25 28.248 26.4408 28.327 26.5814 28.4677C26.7221 28.6083 26.8011 28.7991 26.8011 28.998Z" fill="#D43705"/>
<defs>
<clipPath id="clip0_356_4478">
<rect width="6" height="6" fill="white" transform="translate(30.051 30.625)"/>
</clipPath>
</defs>
</svg>
