<svg width="41" height="40" viewBox="0 0 41 40" fill="none" xmlns="http://www.w3.org/2000/svg">
<path d="M17.1665 16.6667C17.1665 17.5508 17.5177 18.3986 18.1428 19.0237C18.7679 19.6489 19.6158 20 20.4998 20C21.3839 20 22.2317 19.6489 22.8569 19.0237C23.482 18.3986 23.8332 17.5508 23.8332 16.6667C23.8332 15.7827 23.482 14.9348 22.8569 14.3097C22.2317 13.6846 21.3839 13.3334 20.4998 13.3334C19.6158 13.3334 18.7679 13.6846 18.1428 14.3097C17.5177 14.9348 17.1665 15.7827 17.1665 16.6667Z" stroke="#6B047C" stroke-width="2" stroke-linecap="round" stroke-linejoin="round"/>
<path d="M30.9083 25C32.4783 23.0391 33.4624 20.6746 33.7473 18.1788C34.0322 15.683 33.6062 13.1575 32.5185 10.8932C31.4308 8.62892 29.7255 6.71797 27.5992 5.38048C25.4729 4.04299 23.012 3.33337 20.5 3.33337C17.988 3.33337 15.5271 4.04299 13.4008 5.38048C11.2745 6.71797 9.56922 8.62892 8.4815 10.8932C7.39377 13.1575 6.96781 15.683 7.25268 18.1788C7.53755 20.6746 8.52167 23.0391 10.0917 25M18.8333 30H22.1667M26.9833 11.0167L30.3367 7.6667M5.5 30.8334C5.5 28.4934 5.5 27.3217 6.005 26.4817C6.225 26.1184 6.505 25.805 6.83333 25.5617C7.59 25 8.64333 25 10.75 25H30.25C32.3567 25 33.41 25 34.1667 25.5617C34.495 25.805 34.775 26.1184 34.995 26.4817C35.5 27.3217 35.5 28.4934 35.5 30.8334C35.5 33.1734 35.5 34.345 34.995 35.185C34.775 35.5484 34.495 35.8617 34.1667 36.105C33.41 36.6667 32.3567 36.6667 30.25 36.6667H10.75C8.64333 36.6667 7.59 36.6667 6.83333 36.105C6.49938 35.8559 6.2179 35.5432 6.005 35.185C5.5 34.345 5.5 33.1734 5.5 30.8334Z" stroke="#6B047C" stroke-width="2" stroke-linecap="round" stroke-linejoin="round"/>
</svg>
