<svg width="41" height="40" viewBox="0 0 41 40" fill="none" xmlns="http://www.w3.org/2000/svg">
<path d="M11.3563 3.33337C9.18297 3.54837 7.71964 4.03171 6.6263 5.12671C4.66797 7.08837 4.66797 10.2467 4.66797 16.565V23.265C4.66797 29.5817 4.66797 32.7417 6.6263 34.705C8.58464 36.6684 11.738 36.6667 18.043 36.6667H21.388C27.693 36.6667 30.8463 36.6667 32.8046 34.705C34.583 32.9217 34.748 30.1767 34.763 24.9617" stroke="#6B047C" stroke-width="1.5" stroke-linecap="round" stroke-linejoin="round"/>
<path d="M18.0425 11.6667L19.7142 17.5C20.6475 19.35 21.8192 19.8334 24.7309 20C27.0459 19.9434 28.3892 19.67 29.5359 18.6734C30.3175 17.9934 30.6709 16.9684 30.8425 15.9484L31.4159 12.5M35.5959 9.1667V17.5M14.8342 8.2217C17.4792 6.0267 19.8359 4.84836 24.7242 3.5517C25.2757 3.4061 25.8559 3.40898 26.4059 3.56003C30.7325 4.75003 33.0692 5.8067 36.1992 8.1567C36.3325 8.2567 36.3725 8.44337 36.2792 8.5817C35.2575 10.085 32.9759 11.3034 27.3792 13.4734C26.2135 13.9219 24.9216 13.9148 23.7609 13.4534C17.8009 11.0867 15.0609 9.82003 14.7275 8.50503C14.7167 8.45255 14.721 8.39807 14.7398 8.34792C14.7587 8.29777 14.7914 8.254 14.8342 8.2217Z" stroke="#6B047C" stroke-width="1.5" stroke-linecap="round" stroke-linejoin="round"/>
</svg>
