<svg width="41" height="40" viewBox="0 0 41 40" fill="none" xmlns="http://www.w3.org/2000/svg">
<path d="M20.32 23.3334C18.9311 23.3334 17.7505 22.8473 16.7783 21.875C15.8061 20.9028 15.32 19.7223 15.32 18.3334V8.33337C15.32 6.94449 15.8061 5.76393 16.7783 4.79171C17.7505 3.81949 18.9311 3.33337 20.32 3.33337C21.7089 3.33337 22.8894 3.81949 23.8617 4.79171C24.8339 5.76393 25.32 6.94449 25.32 8.33337V18.3334C25.32 19.7223 24.8339 20.9028 23.8617 21.875C22.8894 22.8473 21.7089 23.3334 20.32 23.3334ZM18.6533 35V29.875C15.7644 29.4862 13.3755 28.1945 11.4867 26C9.59776 23.8056 8.65332 21.25 8.65332 18.3334H11.9867C11.9867 20.6389 12.7994 22.6045 14.425 24.23C16.0505 25.8556 18.0155 26.6678 20.32 26.6667C22.6244 26.6656 24.59 25.8528 26.2167 24.2284C27.8433 22.6039 28.6555 20.6389 28.6533 18.3334H31.9867C31.9867 21.25 31.0422 23.8056 29.1533 26C27.2644 28.1945 24.8755 29.4862 21.9867 29.875V35H18.6533ZM20.32 20C20.7922 20 21.1883 19.84 21.5083 19.52C21.8283 19.2 21.9878 18.8045 21.9867 18.3334V8.33337C21.9867 7.86115 21.8267 7.4656 21.5067 7.14671C21.1867 6.82782 20.7911 6.66782 20.32 6.66671C19.8489 6.6656 19.4533 6.8256 19.1333 7.14671C18.8133 7.46782 18.6533 7.86337 18.6533 8.33337V18.3334C18.6533 18.8056 18.8133 19.2017 19.1333 19.5217C19.4533 19.8417 19.8489 20.0012 20.32 20Z" fill="#6B047C"/>
</svg>
