<svg width="17" height="16" viewBox="0 0 17 16" fill="none" xmlns="http://www.w3.org/2000/svg">
<path d="M5.50033 11.3333C5.68921 11.3333 5.84766 11.2693 5.97566 11.1413C6.10366 11.0133 6.16744 10.8551 6.16699 10.6667C6.16655 10.4782 6.10255 10.32 5.97499 10.192C5.84744 10.064 5.68921 10 5.50033 10C5.31144 10 5.15321 10.064 5.02566 10.192C4.8981 10.32 4.8341 10.4782 4.83366 10.6667C4.83321 10.8551 4.89721 11.0136 5.02566 11.142C5.1541 11.2704 5.31233 11.3342 5.50033 11.3333ZM5.50033 8.66667C5.68921 8.66667 5.84766 8.60267 5.97566 8.47467C6.10366 8.34667 6.16744 8.18844 6.16699 8C6.16655 7.81156 6.10255 7.65333 5.97499 7.52533C5.84744 7.39733 5.68921 7.33333 5.50033 7.33333C5.31144 7.33333 5.15321 7.39733 5.02566 7.52533C4.8981 7.65333 4.8341 7.81156 4.83366 8C4.83321 8.18844 4.89721 8.34689 5.02566 8.47533C5.1541 8.60378 5.31233 8.66756 5.50033 8.66667ZM5.50033 6C5.68921 6 5.84766 5.936 5.97566 5.808C6.10366 5.68 6.16744 5.52178 6.16699 5.33333C6.16655 5.14489 6.10255 4.98667 5.97499 4.85867C5.84744 4.73067 5.68921 4.66667 5.50033 4.66667C5.31144 4.66667 5.15321 4.73067 5.02566 4.85867C4.8981 4.98667 4.8341 5.14489 4.83366 5.33333C4.83321 5.52178 4.89721 5.68022 5.02566 5.80867C5.1541 5.93711 5.31233 6.00089 5.50033 6ZM7.50033 11.3333H11.5003V10H7.50033V11.3333ZM7.50033 8.66667H11.5003V7.33333H7.50033V8.66667ZM7.50033 6H11.5003V4.66667H7.50033V6ZM3.50033 14C3.13366 14 2.81988 13.8696 2.55899 13.6087C2.2981 13.3478 2.16744 13.0338 2.16699 12.6667V3.33333C2.16699 2.96667 2.29766 2.65289 2.55899 2.392C2.82033 2.13111 3.1341 2.00044 3.50033 2H12.8337C13.2003 2 13.5143 2.13067 13.7757 2.392C14.037 2.65333 14.1674 2.96711 14.167 3.33333V12.6667C14.167 13.0333 14.0365 13.3473 13.7757 13.6087C13.5148 13.87 13.2008 14.0004 12.8337 14H3.50033Z" fill="#6B047C"/>
</svg>
