<svg width="25" height="25" viewBox="0 0 25 25" fill="none" xmlns="http://www.w3.org/2000/svg">
<path d="M17.7642 18.0781C16.6542 18.0781 15.7642 18.9681 15.7642 20.0781C15.7642 20.6086 15.9749 21.1173 16.3499 21.4923C16.725 21.8674 17.2337 22.0781 17.7642 22.0781C18.2946 22.0781 18.8033 21.8674 19.1784 21.4923C19.5534 21.1173 19.7642 20.6086 19.7642 20.0781C19.7642 19.5477 19.5534 19.039 19.1784 18.6639C18.8033 18.2888 18.2946 18.0781 17.7642 18.0781ZM1.76416 2.07812V4.07812H3.76416L7.36416 11.6681L6.00416 14.1181C5.85416 14.3981 5.76416 14.7281 5.76416 15.0781C5.76416 15.6086 5.97487 16.1173 6.34995 16.4923C6.72502 16.8674 7.23373 17.0781 7.76416 17.0781H19.7642V15.0781H8.18416C8.11786 15.0781 8.05427 15.0518 8.00738 15.0049C7.9605 14.958 7.93416 14.8944 7.93416 14.8281C7.93416 14.7781 7.94416 14.7381 7.96416 14.7081L8.86416 13.0781H16.3142C17.0642 13.0781 17.7242 12.6581 18.0642 12.0481L21.6442 5.57812C21.7142 5.41812 21.7642 5.24813 21.7642 5.07812C21.7642 4.81291 21.6588 4.55855 21.4713 4.37102C21.2837 4.18348 21.0294 4.07812 20.7642 4.07812H5.97416L5.03416 2.07812M7.76416 18.0781C6.65416 18.0781 5.76416 18.9681 5.76416 20.0781C5.76416 20.6086 5.97487 21.1173 6.34995 21.4923C6.72502 21.8674 7.23373 22.0781 7.76416 22.0781C8.29459 22.0781 8.8033 21.8674 9.17837 21.4923C9.55345 21.1173 9.76416 20.6086 9.76416 20.0781C9.76416 19.5477 9.55345 19.039 9.17837 18.6639C8.8033 18.2888 8.29459 18.0781 7.76416 18.0781Z" fill="#FFFBF5"/>
</svg>
