<svg width="21" height="21" viewBox="0 0 21 21" fill="none" xmlns="http://www.w3.org/2000/svg">
<path d="M10.0447 18.9577C9.36284 18.9577 8.71151 18.6872 7.40879 18.1462C4.16604 16.7994 2.54468 16.1261 2.54468 14.9934V7.07821M10.0447 18.9577C10.7265 18.9577 11.3778 18.6872 12.6806 18.1462C15.9233 16.7994 17.5447 16.1261 17.5447 14.9934V7.07821M10.0447 18.9577V10.7649M2.54468 7.07821C2.54468 7.58143 3.21265 7.89921 4.54861 8.53475L6.98294 9.69285C8.48534 10.4076 9.23659 10.7649 10.0447 10.7649M2.54468 7.07821C2.54468 6.57498 3.21265 6.25722 4.54861 5.62167L6.29468 4.79102M17.5447 7.07821C17.5447 7.58143 16.8767 7.89921 15.5408 8.53475L13.1064 9.69285C11.604 10.4076 10.8528 10.7649 10.0447 10.7649M17.5447 7.07821C17.5447 6.57498 16.8767 6.25722 15.5408 5.62167L13.7947 4.79102M5.04468 11.5842L6.71134 12.4035" stroke="#808080" stroke-linecap="round" stroke-linejoin="round"/>
<path d="M10.0478 2.29102V8.12431M10.0478 8.12431C10.2671 8.12727 10.4833 7.97412 10.6429 7.78713L11.7114 6.50913M10.0478 8.12431C9.8363 8.12145 9.62213 7.96908 9.4528 7.78713L8.37805 6.50913" stroke="#808080" stroke-linecap="round"/>
</svg>
