<svg width="25" height="25" viewBox="0 0 25 25" fill="none" xmlns="http://www.w3.org/2000/svg">
<path fill-rule="evenodd" clip-rule="evenodd" d="M16.7589 4.80588L18.5889 6.63588C21.2779 9.32588 22.6219 10.6699 22.6219 12.3399C22.6219 14.0109 21.2779 15.3549 18.5889 18.0439C15.8989 20.7339 14.5549 22.0779 12.8839 22.0779C11.2139 22.0779 9.86894 20.7339 7.17994 18.0449L5.34994 16.2149C3.80494 14.6689 3.03194 13.8969 2.74494 12.8939C2.45694 11.8909 2.70294 10.8259 3.19494 8.69688L3.47794 7.46888C3.89094 5.67688 4.09794 4.78088 4.71094 4.16688C5.32394 3.55288 6.22094 3.34688 8.01294 2.93388L9.24094 2.64988C11.3709 2.15888 12.4349 1.91288 13.4379 2.19988C14.4409 2.48788 15.2139 3.26088 16.7589 4.80588ZM11.7679 14.4059C11.0949 13.7339 11.0999 12.7679 11.5029 12.0029C11.4032 11.8588 11.357 11.6843 11.3725 11.5097C11.388 11.3351 11.4641 11.1715 11.5877 11.0472C11.7113 10.9229 11.8745 10.8458 12.049 10.8293C12.2235 10.8128 12.3983 10.8579 12.5429 10.9569C12.8829 10.7769 13.2559 10.6809 13.6279 10.6849C13.8268 10.6867 14.0169 10.7675 14.1562 10.9095C14.2956 11.0515 14.3728 11.243 14.3709 11.4419C14.3691 11.6408 14.2883 11.8308 14.1463 11.9702C14.0044 12.1095 13.8128 12.1867 13.6139 12.1849C13.3824 12.1934 13.1636 12.293 13.0049 12.4619C12.6179 12.8489 12.7189 13.2369 12.8279 13.3459C12.9379 13.4549 13.3249 13.5559 13.7119 13.1689C14.4959 12.3849 15.8499 12.1249 16.7169 12.9919C17.3899 13.6649 17.3849 14.6309 16.9819 15.3959C17.0811 15.54 17.1267 15.7143 17.1109 15.8885C17.0952 16.0627 17.019 16.226 16.8956 16.35C16.7722 16.474 16.6093 16.5509 16.4352 16.5675C16.261 16.5841 16.0865 16.5393 15.9419 16.4409C15.4932 16.6871 14.9727 16.7691 14.4699 16.6729C14.275 16.6328 14.104 16.517 13.9944 16.3508C13.8849 16.1847 13.8459 15.9818 13.8859 15.7869C13.926 15.5919 14.0418 15.4209 14.208 15.3114C14.3741 15.2019 14.577 15.1628 14.7719 15.2029C14.9489 15.2399 15.2349 15.1819 15.4799 14.9369C15.8669 14.5489 15.7659 14.1619 15.6569 14.0529C15.5469 13.9439 15.1599 13.8429 14.7729 14.2299C13.9889 15.0139 12.6349 15.2739 11.7679 14.4059ZM10.6419 10.3709C10.8276 10.1851 10.9749 9.96462 11.0754 9.72194C11.1758 9.47927 11.2275 9.21918 11.2275 8.95653C11.2274 8.69388 11.1757 8.43381 11.0751 8.19117C10.9746 7.94853 10.8272 7.72807 10.6414 7.54238C10.4557 7.35669 10.2352 7.20941 9.9925 7.10894C9.74982 7.00847 9.48973 6.95678 9.22708 6.95683C8.96443 6.95688 8.70436 7.00866 8.46172 7.10921C8.21908 7.20977 7.99863 7.35713 7.81294 7.54288C7.43792 7.91803 7.22729 8.42679 7.22739 8.95724C7.22748 9.48768 7.43829 9.99637 7.81344 10.3714C8.18859 10.7464 8.69734 10.957 9.22779 10.9569C9.75824 10.9568 10.2669 10.746 10.6419 10.3709Z" fill="#F5FFFB"/>
</svg>
