<svg width="41" height="40" viewBox="0 0 41 40" fill="none" xmlns="http://www.w3.org/2000/svg">
<path d="M37.95 31.3667L36.2833 24.9334L31.0333 5.6167C30.9199 5.1906 30.6422 4.82682 30.2611 4.60503C29.88 4.38324 29.4265 4.32151 29 4.43336L22.55 6.10003C22.3961 5.92944 22.2085 5.79252 21.9991 5.69787C21.7898 5.60322 21.5631 5.55289 21.3333 5.55003H4.66667C4.22464 5.55003 3.80072 5.72562 3.48816 6.03819C3.17559 6.35075 3 6.77467 3 7.2167V33.8834C3 34.3254 3.17559 34.7493 3.48816 35.0619C3.80072 35.3744 4.22464 35.55 4.66667 35.55H21.3333C21.7754 35.55 22.1993 35.3744 22.5118 35.0619C22.8244 34.7493 23 34.3254 23 33.8834V20.55L26.6667 34.25C26.7643 34.6136 26.9822 34.9335 27.2849 35.1574C27.5875 35.3814 27.9571 35.4963 28.3333 35.4834C28.4774 35.4991 28.6226 35.4991 28.7667 35.4834L36.8167 33.3334C37.0295 33.2765 37.2289 33.1779 37.4034 33.0435C37.5779 32.909 37.724 32.7413 37.8333 32.55C38.0091 32.1813 38.0504 31.7627 37.95 31.3667ZM11.2833 32.2834H6.28333V28.95H11.2833V32.2834ZM11.2833 25.6167H6.28333V15.6167H11.2833V25.6167ZM11.2833 12.2834H6.28333V8.95003H11.2833V12.2834ZM19.6167 32.2834H14.6167V28.95H19.6167V32.2834ZM19.6167 25.6167H14.6167V15.6167H19.6167V25.6167ZM19.6167 12.2834H14.6167V8.95003H19.6167V12.2834ZM23.3667 9.38336L28.2 8.08336L29.0667 11.3L24.2333 12.6L23.3667 9.38336ZM27.6833 25.4834L25.1 15.8167L29.9333 14.5167L32.5167 24.1834L27.6833 25.4834ZM29.35 31.9167L28.4833 28.7L33.3167 27.4L34.1833 30.6167L29.35 31.9167Z" fill="#6B047C"/>
</svg>
