<svg width="21" height="21" viewBox="0 0 21 21" fill="none" xmlns="http://www.w3.org/2000/svg">
<path d="M12.551 13.125C12.551 13.8153 13.1107 14.375 13.801 14.375C14.4914 14.375 15.051 13.8153 15.051 13.125C15.051 12.4347 14.4914 11.875 13.801 11.875C13.1107 11.875 12.551 12.4347 12.551 13.125Z" stroke="#FFFBF0"/>
<path d="M12.5542 7.12734C8.03118 6.81392 4.30494 6.14278 2.55103 5.625V13.1762C2.55103 14.8382 2.55103 15.6692 3.06734 16.347C3.58366 17.0247 4.29205 17.2161 5.70883 17.5989C7.99788 18.2174 10.4039 18.5858 12.5599 18.7964C14.7943 19.0148 15.9114 19.1239 16.7313 18.3748C17.551 17.6256 17.551 16.4222 17.551 14.0152V12.3372C17.551 9.99978 17.551 8.83108 16.8784 8.10573C16.2059 7.38038 14.9887 7.29603 12.5542 7.12734Z" stroke="#FFFBF0" stroke-linecap="round" stroke-linejoin="round"/>
<path d="M14.7392 7.29101C15.0539 6.10496 15.3388 3.94786 14.4902 2.87678C13.9524 2.19791 13.1529 2.26313 12.3692 2.33206C8.24928 2.6944 5.33889 3.43044 3.71187 3.93049C3.01226 4.14551 2.55103 4.8287 2.55103 5.59138" stroke="#FFFBF0" stroke-linejoin="round"/>
</svg>
